<?xml version="1.0" encoding="UTF-8"?>
<svg width="41px" height="37px" viewBox="0 0 41 37" version="1.1" xmlns="http://www.w3.org/2000/svg" xmlns:xlink="http://www.w3.org/1999/xlink">
    <!-- Generator: Sketch 64 (93537) - https://sketch.com -->
    <title>np_info_3413625_000000</title>
    <desc>Created with Sketch.</desc>
    <g id="MAQUETTE" stroke="none" stroke-width="1" fill="none" fill-rule="evenodd">
        <g id="Desktop-HD" transform="translate(-167.000000, -1187.000000)" fill="#fff" fill-rule="nonzero">
            <g id="np_info_3413625_000000" transform="translate(167.000000, 1187.000000)">
                <path d="M22.3228039,0 C12.0259,0 3.64881866,8.29916549 3.64881866,18.5001333 C3.64881866,22.5211654 4.9959233,26.437971 7.42913357,29.6345201 L0.283501134,35.6046697 C0.0277445354,35.8181298 -0.0668519066,36.1686751 0.0487634756,36.4810884 C0.164378858,36.7917334 0.462182305,37 0.798530193,37 L22.324221,37 C32.6211249,37 41,28.6991907 41,18.4982229 C40.9982483,8.2990322 32.6193311,0 22.3228756,0 L22.3228039,0 Z M22.3228039,35.4171862 L2.98152225,35.4171862 L9.03562278,30.3582419 C9.09868857,30.3061774 9.14073094,30.2402339 9.1827733,30.1742859 C9.19503532,30.1551964 9.2160565,30.139577 9.22831808,30.1187517 C9.26860879,30.0441271 9.28612801,29.9608257 9.30014213,29.8792615 C9.30364589,29.8619069 9.3124046,29.846288 9.31415625,29.8289342 C9.32116331,29.7508398 9.30714919,29.674478 9.29138342,29.5981207 C9.28612801,29.5738247 9.29138342,29.5512632 9.28437636,29.5269659 C9.26335517,29.4575481 9.2195616,29.3950699 9.1792682,29.330859 C9.16175033,29.3048272 9.15649537,29.2753248 9.13722584,29.2527646 C9.13547418,29.2510288 9.13372208,29.2492935 9.13372208,29.2475581 L9.13372208,29.2458224 C6.62871466,26.229604 5.24654109,22.4133376 5.24654109,18.4997308 C5.24654109,9.16998365 12.9069963,1.58090077 22.324486,1.58090077 C31.7419757,1.58090077 39.4024309,9.16998365 39.4024309,18.4997308 C39.4006793,27.8294779 31.7401819,35.4167837 22.3226922,35.4167837 L22.3228039,35.4171862 Z" id="Shape"></path>
                <path d="M21,5 C18.2433827,5 16,7.24315837 16,10 C16,12.7566173 18.2431584,15 21,15 C23.7568416,15 26,12.7568416 26,10 C26,7.24163302 23.7568416,5 21,5 L21,5 Z M21,13.4015253 C19.1231045,13.4015253 17.596725,11.8751458 17.596725,9.99825034 C17.596725,8.12310453 19.1231045,6.59497533 21,6.59497533 C22.8751458,6.59497533 24.403275,8.12135487 24.403275,9.99825034 C24.403275,11.8751458 22.8751458,13.4015253 21,13.4015253 Z" id="Shape"></path>
                <path d="M24.2373943,17 L17.7642813,17 C17.3435804,17 17.001676,17.3526843 17.001676,17.7865999 L17,30.2134001 C17,30.6473379 17.3419216,31 17.7626053,31 L24.2357183,31 C24.6564191,31 24.9983236,30.6473157 24.9983236,30.2134001 L25,17.7865999 C25,17.3526621 24.6580741,17 24.2373947,17 L24.2373943,17 Z M23.4731155,29.4268002 L18.5271011,29.4268002 L18.5271011,18.5747046 L23.4731155,18.5747046 L23.4731155,29.4268002 Z" id="Shape"></path>
            </g>
        </g>
    </g>
</svg>