<?xml version="1.0" encoding="UTF-8"?>
<svg width="46px" height="36px" viewBox="0 0 46 36" version="1.1" xmlns="http://www.w3.org/2000/svg" xmlns:xlink="http://www.w3.org/1999/xlink">
    <!-- Generator: Sketch 64 (93537) - https://sketch.com -->
    <title>np_stats_1897272_000000</title>
    <desc>Created with Sketch.</desc>
    <g id="MAQUETTE" stroke="none" stroke-width="1" fill="none" fill-rule="evenodd">
        <g id="Desktop-HD" transform="translate(-228.000000, -1187.000000)" fill="#fff" fill-rule="nonzero">
            <g id="np_stats_1897272_000000" transform="translate(228.000000, 1187.000000)">
                <path d="M44.4797131,0.376223865 L29.7072481,20.4220387 C27.9714769,19.3290585 25.7371449,19.4250826 24.1018527,20.6590236 L21.3443259,17.4474465 C22.3599362,15.9213118 22.4358338,13.9559559 21.5412921,12.3562865 C20.6467505,10.7545773 18.9314637,9.78413773 17.0931125,9.83931497 C15.2547614,9.89243157 13.5990372,10.9629434 12.8008777,12.6137106 C12.0048191,14.2644255 12.1976884,16.2195828 13.3014975,17.684421 L0.170417515,34.6821506 C-0.106564233,35.041718 -0.038860385,35.5545264 0.322244313,35.830308 C0.683349012,36.1061106 1.19834997,36.0386949 1.47531071,35.6791276 L14.4997663,18.836731 C16.2539735,20.0134969 18.5663042,19.9440416 20.2448764,18.665122 L22.9860156,21.8358523 C21.9622115,23.3721856 21.8904108,25.3498322 22.7993074,26.9556208 C23.7082407,28.5614094 25.4460604,29.5236901 27.2967023,29.4460235 C29.1473441,29.3683883 30.7969755,28.2631384 31.5663517,26.5878945 C32.3357279,24.9106108 32.0977402,22.9452549 30.9467223,21.500814 L45.8095291,1.34046061 C45.9552,1.16680658 46.0208554,0.94207567 45.9941836,0.717349994 C45.9654591,0.494664045 45.8464589,0.292406753 45.6638529,0.157575531 C45.4812468,0.0247788074 45.2514529,-0.0283377902 45.0298843,0.0145644794 C44.8062463,0.0554244064 44.6113285,0.186173558 44.4882535,0.376176795 L44.4797131,0.376223865 Z M17.2411261,18.0193442 C15.9136789,18.0193442 14.7154416,17.2225953 14.208687,16.0008508 C13.6998577,14.7791585 13.9809468,13.3735771 14.9206542,12.4399048 C15.8583183,11.5041929 17.2699094,11.2243318 18.496825,11.7309688 C19.7237406,12.2355869 20.5239486,13.428702 20.5239486,14.7504978 C20.5239486,15.6167021 20.177204,16.448231 19.5617031,17.061143 C18.9462021,17.674055 18.1111389,18.0193442 17.2411786,18.0193442 L17.2411261,18.0193442 Z M27.089436,27.8257267 C25.7619889,27.8257267 24.5637516,27.0289777 24.056997,25.8072332 C23.5481676,24.585541 23.8292568,23.1799595 24.7689641,22.2462873 C25.7066283,21.3105754 27.1182194,21.0307143 28.345135,21.5373513 C29.5720505,22.0419694 30.3722585,23.2350845 30.3722585,24.5568802 C30.3722585,25.4230845 30.025514,26.2546135 29.410013,26.8675255 C28.794512,27.4804374 27.9594489,27.8257267 27.0894886,27.8257267 L27.089436,27.8257267 Z" id="Shape"></path>
            </g>
        </g>
    </g>
</svg>