<?xml version="1.0" encoding="UTF-8"?>
<svg width="35px" height="27px" viewBox="0 0 35 27" version="1.1" xmlns="http://www.w3.org/2000/svg" xmlns:xlink="http://www.w3.org/1999/xlink">
    <!-- Generator: Sketch 64 (93537) - https://sketch.com -->
    <title>np_back_1227049_000000</title>
    <desc>Created with Sketch.</desc>
    <g id="MAQUETTE" stroke="none" stroke-width="1" fill="none" fill-rule="evenodd">
        <g id="Desktop-HD" transform="translate(-27.000000, -1013.000000)" fill="#fff" fill-rule="nonzero">
            <g id="np_back_1227049_000000" transform="translate(27.000000, 1013.000000)">
                <path d="M32.6679841,11.1262033 L7.98408449,11.1262033 L15.1269794,3.96802268 C16.0521769,3.04084526 16.0521769,1.55736138 15.1269794,0.667864443 C14.6831806,0.223115975 14.0904621,0 13.4616239,0 C12.8327856,0 12.2400671,0.2593204 11.7962683,0.704061449 L0.693898137,11.8680194 C-0.231299379,12.7951968 -0.231299379,14.2786807 0.693898137,15.1681776 L11.7962683,26.3321356 C12.2400671,26.776884 12.8327856,27 13.4616239,27 C14.0904621,27 14.6831806,26.7768989 15.1269794,26.3321356 C15.5707781,25.8873871 15.8295374,25.2934001 15.8295374,24.6632162 C15.8295374,24.0330322 15.5707707,23.4390453 15.1630991,22.9942968 L7.98430654,15.8001418 L32.6682062,15.8001418 C33.9634827,15.8001418 35,14.7614063 35,13.4633579 C35,12.1653096 33.9634827,11.1265741 32.6682062,11.1265741 L32.6679841,11.1262033 Z" id="Path"></path>
            </g>
        </g>
    </g>
</svg>