<?xml version="1.0" encoding="UTF-8"?>
<svg width="42px" height="42px" viewBox="0 0 42 42" version="1.1" xmlns="http://www.w3.org/2000/svg" xmlns:xlink="http://www.w3.org/1999/xlink">
    <!-- Generator: Sketch 64 (93537) - https://sketch.com -->
    <title>np_money_3280600_000000</title>
    <desc>Created with Sketch.</desc>
    <g id="MAQUETTE" stroke="none" stroke-width="1" fill="none" fill-rule="evenodd">
        <g id="Desktop-HD" transform="translate(-294.000000, -1187.000000)" fill="#fff" fill-rule="nonzero">
            <g id="np_money_3280600_000000" transform="translate(294.000000, 1187.000000)">
                <path d="M7.08015813,34.0417372 L5.45357091,34.6407136 C5.09717056,34.7719959 4.91227155,35.1713111 5.04089755,35.5377743 C5.14272818,35.8222193 5.40533787,36 5.68670982,36 C5.7644205,36 5.84213118,35.9863249 5.91984187,35.9589748 L7.54642909,35.3599984 C7.90282944,35.2287162 8.08772845,34.8294009 7.95910245,34.4629378 C7.82779418,34.0991773 7.43655848,33.9104598 7.08019243,34.0417421 L7.08015813,34.0417372 Z" id="Path"></path>
                <path d="M11.0801581,33.040385 L9.45357091,33.6397749 C9.09717056,33.7711479 8.91227155,34.1707389 9.04089755,34.5374551 C9.14272818,34.8220965 9.40533787,35 9.68670982,35 C9.7644205,35 9.84213118,34.9863155 9.91984187,34.9589465 L11.5464291,34.3595565 C11.9028294,34.2281835 12.0877285,33.8285926 11.9591025,33.4618764 C11.8304765,33.1006042 11.4365585,32.9117495 11.0801924,33.0403899 L11.0801581,33.040385 Z" id="Path"></path>
                <path d="M14.0801581,31.0406525 L12.4535709,31.6372236 C12.0971706,31.7685791 11.9122715,32.168117 12.0408975,32.5347844 C12.1427282,32.819388 12.4053379,33 12.6867098,33 C12.7644205,33 12.8421312,32.9863173 12.9198419,32.9589512 L14.5464291,32.3623802 C14.9028294,32.2310247 15.0877285,31.8314868 14.9591025,31.4648194 C14.8304765,31.0981169 14.4365585,30.9120335 14.0801924,31.0406497 L14.0801581,31.0406525 Z" id="Path"></path>
                <path d="M24.8075345,29.0291626 C24.5155342,28.2586906 23.925299,27.6434502 23.1445886,27.2935879 C22.3638253,26.945683 21.4878456,26.904407 20.676068,27.1835169 C20.2308203,27.3348639 19.8414937,27.5785951 19.5142803,27.8852039 C19.0607462,27.8458933 18.5927071,27.8950321 18.1370895,28.050313 C17.3253119,28.3274554 16.677088,28.8876578 16.3084693,29.6286433 C15.9419129,30.3696792 15.900497,31.2010864 16.1924973,31.9715584 C16.4844976,32.7420304 17.0747328,33.3572708 17.8554432,33.7071331 C18.2924098,33.9017236 18.7604225,34 19.2284458,34 C19.5970698,34 19.9656831,33.9390697 20.3239638,33.8172041 C20.7774978,33.6619272 21.1689292,33.418196 21.4898867,33.1174795 C21.5830779,33.1253417 21.6742014,33.1312385 21.7673925,33.1312385 C22.1360165,33.1312385 22.5046299,33.0703082 22.8629105,32.9484426 C23.6746881,32.6713001 24.3249796,32.1110978 24.6915307,31.3701123 C25.0580871,30.6310388 25.099503,29.7996315 24.8075027,29.0291596 L24.8075345,29.0291626 Z M21.0694981,32.0050452 C20.9949473,31.9814439 20.9183183,31.9617881 20.8458352,31.9283754 C20.3218908,31.6944763 19.9242619,31.2797237 19.729588,30.762805 C19.5328517,30.2458864 19.5618408,29.6856941 19.8082846,29.1903619 C19.8434903,29.1196045 19.8911218,29.0567068 19.932543,28.9918416 C20.5331057,29.1883945 21.0404667,29.6286685 21.2703431,30.2380216 C21.5022871,30.8473245 21.4008096,31.4900889 21.069461,32.0050452 L21.0694981,32.0050452 Z M17.1906518,31.6315736 C16.9939156,31.1146549 17.0229046,30.5544626 17.2693485,30.0591304 C17.515787,29.5618459 17.9527748,29.1864119 18.4974059,28.9996812 C18.590597,28.9682323 18.6837882,28.948578 18.7769793,28.9289237 C18.4808385,29.6266859 18.4621981,30.3932834 18.7314191,31.1067449 C19.0027115,31.8202567 19.5369939,32.3922234 20.2328259,32.7518978 C20.1458482,32.7951397 20.0588706,32.8423145 19.9636065,32.8737634 C18.8390889,33.2550796 17.5965581,32.6988272 17.1906163,31.6315082 L17.1906518,31.6315736 Z M23.7327987,30.9436234 C23.4863601,31.4409079 23.0493723,31.8163419 22.5047412,32.0030727 C22.413623,32.0345216 22.318359,32.050246 22.2251678,32.0699003 C22.5088871,31.3976997 22.5482354,30.6291398 22.270728,29.8960039 C21.9932222,29.162868 21.4464917,28.5948261 20.7775917,28.2469262 C20.8625017,28.2056497 20.9474065,28.1604444 21.03853,28.1289955 C21.2787551,28.0464435 21.5272666,28.0071299 21.7736998,28.0071299 C22.088481,28.0071299 22.4032621,28.0739575 22.695273,28.2036828 C23.2192174,28.4375818 23.6147787,28.8523344 23.8115202,29.3692531 C24.0061889,29.8861718 23.9792674,30.4463641 23.7328236,30.9436586 L23.7327987,30.9436234 Z" id="Shape"></path>
                <path d="M40.3698449,9.05227211 L21.7171433,0.270191008 C20.3023515,-0.396207794 18.6066275,0.212779399 17.9402533,1.62760783 L15.5289186,6.73544048 C15.4428017,6.5324395 15.3505329,6.331491 15.2459602,6.13465794 C14.3088896,4.37325489 12.7403515,3.08145433 10.8334559,2.49909684 C8.92451317,1.91673935 6.90276712,2.11155142 5.1413243,3.04864619 C1.50385063,4.98432605 0.119818598,9.51788514 2.0554268,13.1556509 C3.39641615,15.6777827 5.98816272,17.1172462 8.66405248,17.1172462 C9.8471487,17.1172462 11.0466746,16.8363245 12.1621099,16.2437099 C12.5824478,16.0202052 12.9740942,15.7577401 13.3370175,15.4665509 C13.581017,15.74542 13.8783054,15.9730245 14.2453754,16.1452855 L19.937507,18.8273635 L1.87742958,25.3233739 C0.405212544,25.8523985 -0.361629494,27.482569 0.167375507,28.9548406 L4.18619679,40.123779 C4.44250019,40.8353218 4.96127993,41.4032962 5.64817807,41.727283 C6.03366198,41.9097803 6.44577987,42 6.8599869,42 C7.18190413,42 7.50588952,41.9446356 7.817529,41.8318596 L25.5763077,35.4424101 C25.9310319,38.2782401 27.8994575,40.7861988 30.8028435,41.6738557 C31.5266429,41.8953132 32.2586309,42 32.9803831,42 C36.181131,42 39.1480838,39.9247832 40.1301917,36.7096386 C41.3338119,32.7685682 39.1070358,28.585295 35.1661112,27.3816302 C32.6153602,26.6024239 29.968288,27.2668017 28.0882154,28.896946 L25.3878123,21.3941197 L32.8966598,24.9271619 C33.2780389,25.1076066 33.6881202,25.1978264 34.0982329,25.1978264 C34.4222025,25.1978264 34.750277,25.1404095 35.0660632,25.0276335 C35.781674,24.7692682 36.3516745,24.2525217 36.6736023,23.5676978 L41.729962,12.8292021 C42.0518793,12.146373 42.0867386,11.3754081 41.8304352,10.6597709 C41.5720794,9.94413365 41.0533049,9.37411202 40.3705535,9.05217237 L40.3698449,9.05227211 Z M11.667728,15.3146886 C8.54288209,16.9776672 4.64704739,15.788354 2.98203065,12.6613242 C1.31911356,9.53636268 2.50838273,5.63828401 5.63529676,3.97530536 C7.14850932,3.16943262 8.887276,3.0012975 10.5276219,3.50368713 C12.1679679,4.00400853 13.5150987,5.11538011 14.3209416,6.62864869 C15.1267845,8.1439645 15.2949134,9.88074834 14.7925423,11.521155 C14.2901713,13.1615617 13.180909,14.5087423 11.6676965,15.3146151 L11.667728,15.3146886 Z M2.233508,26.3114499 L21.6326327,19.3314539 C22.0796256,19.171513 22.5635093,19.1940692 22.9982403,19.3991227 C23.4329714,19.6041761 23.7589409,19.9609554 23.9209283,20.4079859 L24.4068802,21.7592611 L1.64307795,29.9507958 L1.15712612,28.5995206 C0.822904983,27.6706567 1.30475726,26.6453632 2.23361298,26.3111402 L2.233508,26.3114499 Z M7.46209097,40.8436157 C7.01509801,41.0035566 6.53121434,40.9810004 6.0964833,40.7759469 C5.66175226,40.5708935 5.33578271,40.2141142 5.17379527,39.7670837 L1.99766562,30.9377589 L24.7614678,22.747799 L27.2691237,29.7172963 C26.6376037,30.4657417 26.1434527,31.3495141 25.8399494,32.3439942 C25.6369559,33.010393 25.5385351,33.6809388 25.5241841,34.3452903 L7.46209097,40.8436157 Z M32.9879733,28.1035404 C33.6072104,28.1035404 34.2366833,28.1937864 34.8600148,28.384483 C38.247316,29.4179654 40.160563,33.0145242 39.1249142,36.4017409 C38.09147,39.7891675 34.4950444,41.7045851 31.1079531,40.6688454 C27.7206519,39.635363 25.8074049,36.0388042 26.8430537,32.6515875 C27.687845,29.8875154 30.238596,28.1035404 32.9881832,28.1035404 L32.9879733,28.1035404 Z M35.7232304,23.1208196 C35.520237,23.551425 35.1614185,23.8754066 34.7103103,24.0394473 C34.2592125,24.2014355 33.7753393,24.1809317 33.3447026,23.9779307 L24.8784179,19.9958633 C24.6159626,19.3150814 24.1115759,18.765532 23.4451493,18.4518338 C22.7787752,18.138104 22.0364989,18.0991437 21.3434593,18.3308531 L14.691791,15.1976502 C14.4457391,15.0828217 14.2550495,14.9351851 14.1012665,14.7526879 C14.8722553,13.9304373 15.458633,12.9400516 15.7969905,11.8307168 C16.159919,10.6434823 16.2193809,9.41110385 15.9897324,8.2259166 L17.8310142,4.32789043 L39.721365,14.6338437 L35.7232304,23.1208196 Z M40.7775431,12.3802242 L40.1664945,13.6802661 L18.2761437,3.37431285 L18.8892394,2.07427088 C19.3095774,1.1823096 20.3757865,0.798848143 21.2677147,1.21921219 L39.922516,10.0012933 C40.3531055,10.2042943 40.6791223,10.563126 40.8411097,11.014251 C41.0030919,11.4653654 40.9805365,11.9513562 40.7775483,12.3799092 L40.7775431,12.3802242 Z" id="Shape"></path>
                <path d="M19.5970338,10.7605534 L17.9993363,10.062096 C17.6491484,9.90969938 17.2332652,10.046857 17.0664356,10.3745032 C16.9022815,10.6996091 17.0527566,11.0857048 17.4029452,11.2405852 L19.0006427,11.9390427 C19.0963981,11.9822206 19.1976234,12 19.2988487,12 C19.5614897,12 19.8131908,11.8628443 19.9335644,11.6266354 C20.0977185,11.2989872 19.9472434,10.912898 19.5970548,10.7605534 L19.5970338,10.7605534 Z" id="Path"></path>
                <path d="M22.5980615,11.7605534 L20.9997318,11.062096 C20.6494052,10.9096994 20.2333575,11.046857 20.0664619,11.3745032 C19.9022429,11.6996091 20.0527775,12.0857048 20.4031047,12.2405852 L22.0014344,12.9390427 C22.0972277,12.9822206 22.198493,13 22.2997584,13 C22.5625033,13 22.814304,12.8628443 22.9347252,12.6266354 C23.0962047,12.2989872 22.9484104,11.912898 22.5980825,11.7605534 L22.5980615,11.7605534 Z" id="Path"></path>
                <path d="M25.5970338,12.7605534 L23.9993363,12.062096 C23.6518868,11.9096994 23.2332652,12.046857 23.0664356,12.3745032 C22.9022815,12.6996091 23.0527566,13.0857048 23.4029452,13.2405852 L25.0006427,13.9390427 C25.0963981,13.9822206 25.1976234,14 25.2988487,14 C25.5614897,14 25.8131908,13.8628443 25.9335644,13.6266354 C26.0977185,13.2989872 25.9472434,12.912898 25.5970548,12.7605534 L25.5970338,12.7605534 Z" id="Path"></path>
                <path d="M34.1251337,14.5317238 C33.6832537,14.3161135 33.2204328,14.2159298 32.761783,14.2115755 C32.4664993,13.8456925 32.0979068,13.5386295 31.6560374,13.3229746 C30.0288089,12.5258654 28.0791048,13.2554626 27.3105245,14.9476903 C26.5440351,16.6420979 27.2456059,18.6696891 28.8749199,19.4667983 C29.3105166,19.6802287 29.7754391,19.7869466 30.2424524,19.791301 C30.5356451,20.155004 30.9063286,20.4620725 31.3440162,20.6754973 C31.7858962,20.8911076 32.2591714,21 32.7324573,21 C33.1052262,21 33.4779844,20.932488 33.8402937,20.7974583 C34.6611992,20.4903786 35.3167119,19.8696627 35.6894755,19.0486352 C36.4559649,17.3542275 35.7543941,15.3288107 34.1250801,14.5317015 L34.1251337,14.5317238 Z M32.2487171,17.3651218 C31.9995075,17.9161234 31.557606,18.3342866 31.0068509,18.5390138 C30.9293656,18.567326 30.8518803,18.5803936 30.774395,18.5999971 C30.491678,17.9989175 30.4560744,17.2801979 30.7492645,16.631226 C31.0445481,15.9800239 31.5994957,15.5531744 32.2235918,15.3963952 C32.5063089,15.9974748 32.5440087,16.7161945 32.2487224,17.3651664 L32.2487171,17.3651218 Z M29.3314789,18.4583941 C28.2382785,17.9226355 27.7670835,16.5614894 28.2822939,15.4246177 C28.7974721,14.2877461 30.1063317,13.7977277 31.1995321,14.3335198 C31.289584,14.3770778 31.3691655,14.4358778 31.4508379,14.4903268 C30.740909,14.8061207 30.1356843,15.3789276 29.7817385,16.158586 C29.4278141,16.9404187 29.3901196,17.7919992 29.6079179,18.5607856 C29.5136789,18.5281173 29.4215308,18.5019823 29.3314789,18.4584275 L29.3314789,18.4583941 Z M34.7178669,18.5738208 C34.4686574,19.1248224 34.0267559,19.5408112 33.4760008,19.7477128 C32.9252457,19.9546089 32.3304752,19.9241228 31.7985379,19.6649522 C31.7063897,19.6192169 31.6247174,19.5604142 31.5409488,19.5037908 C32.2781125,19.1771082 32.8749738,18.5999692 33.2184117,17.8398804 C33.572336,17.0580477 33.6100305,16.2086416 33.3922322,15.4376808 C33.4843803,15.4681713 33.5765231,15.4943041 33.666575,15.5378644 C34.7618662,16.0757975 35.2330613,17.4369435 34.7178509,18.5738152 L34.7178669,18.5738208 Z" id="Shape"></path>
                <path d="M31.1812483,37.9364637 L31.0703544,38.2987444 C30.9829147,38.5847529 31.1449971,38.8876939 31.4328997,38.9766953 C31.4862153,38.9936441 31.5395297,39 31.5928474,39 C31.8274378,39 32.0428325,38.8495817 32.1153404,38.6165347 L32.2155718,38.2923874 C32.3030116,38.3008617 32.3904459,38.3114546 32.4800204,38.3114546 C32.880957,38.3114546 33.2754732,38.2139978 33.6380403,38.0233254 C34.2223734,37.7140117 34.6489261,37.1992083 34.8408284,36.5720765 C35.2396304,35.2755089 34.5017428,33.900516 33.1987123,33.5043757 L33.1240697,33.481071 C32.7700522,33.3751425 32.4821386,33.1378597 32.30727,32.8136961 C32.1345252,32.4895487 32.0982739,32.1188235 32.2049039,31.7671025 C32.4266972,31.0425628 33.1987014,30.633677 33.9302232,30.8560992 C34.6595613,31.0764332 35.0711549,31.8454737 34.8472598,32.5700676 C34.75982,32.8560761 34.9219024,33.1590172 35.209805,33.2480186 C35.4977077,33.3348831 35.8026549,33.173867 35.8922457,32.8878585 C36.2356008,31.7713546 35.732298,30.5976317 34.7534433,30.0404645 L34.8579441,29.7014891 C34.9453838,29.4154805 34.7833014,29.1125395 34.4953988,29.0235381 C34.2074962,28.9366736 33.9025489,29.0976897 33.8129581,29.3836982 L33.7084573,29.7247943 C32.5824301,29.6442863 31.5054295,30.3370654 31.1620799,31.4535692 C30.763278,32.7501368 31.5011656,34.1251298 32.8041961,34.5212701 L32.8788387,34.5445748 C33.2328562,34.6505033 33.5207697,34.8877861 33.6956383,35.2119497 C33.8683832,35.536097 33.9046344,35.9068223 33.7980044,36.2585432 C33.6913745,36.6102316 33.4525202,36.896251 33.1262098,37.0699691 C32.8020505,37.2415775 32.4267354,37.2775903 32.0726851,37.1716618 C31.7186349,37.0657333 31.4307541,36.8284505 31.2558855,36.5042869 C31.0831407,36.1801395 31.0468894,35.8094143 31.1535194,35.4576933 C31.2409592,35.1716848 31.0788768,34.8687438 30.7909741,34.7797424 C30.5030715,34.6907627 30.1981242,34.853894 30.1085334,35.1399025 C29.9165983,35.76698 29.9805731,36.4322397 30.2898061,37.0106132 C30.4988022,37.3983143 30.8101644,37.7097704 31.1812374,37.936423 L31.1812483,37.9364637 Z" id="Path"></path>
                <path d="M7.80424648,9.00144322 L7.74421249,9.03624055 C7.15136474,9.38012137 6.41597226,9.13449221 6.10076975,8.48765566 C5.78559125,7.84286275 6.01071875,7.03845673 6.6035665,6.6945497 C7.19454119,6.35066888 7.93180673,6.59629804 8.24700924,7.24313459 C8.37082816,7.49899764 8.66349631,7.59520043 8.89614486,7.46010571 C9.13065207,7.32501098 9.21883001,7.00569045 9.09500629,6.75185532 C8.60911511,5.75503324 7.56226624,5.29652548 6.60359532,5.58100989 L6.45538818,5.27806988 C6.33156926,5.02220683 6.04077897,4.9259988 5.80625255,5.06109877 C5.57172613,5.19619874 5.48356741,5.51346515 5.60739113,5.76934916 L5.75559827,6.07228917 C5.00330021,6.78053956 4.7687834,7.98612677 5.25280151,8.98095761 C5.81563226,10.1354016 7.13638025,10.5775602 8.19634054,9.96143061 L8.25637454,9.92663276 C8.84922229,9.58275193 9.58461477,9.82838109 9.89981728,10.4752176 C10.2149958,11.1200106 9.98986828,11.9244166 9.39702053,12.2683236 C9.10998117,12.4361689 8.78169605,12.4689194 8.47211272,12.3665753 C8.16068515,12.2621822 7.90740891,12.0349772 7.75357779,11.7217823 C7.62975887,11.4659193 7.33896858,11.3697165 7.10444216,11.5048112 C6.86991574,11.639906 6.78175701,11.9592265 6.90558074,12.2130616 C7.17948466,12.7739083 7.63535404,13.1833165 8.19069254,13.3675056 C8.40081154,13.4370992 8.61468146,13.4718986 8.82854178,13.4718986 C8.9973862,13.4718986 9.16435756,13.449383 9.32946547,13.4063975 L9.48330139,13.7216203 C9.56960147,13.8976558 9.73656802,14 9.90729031,14 C9.98233281,14 10.0611262,13.9795306 10.1324178,13.9385914 C10.366925,13.8034967 10.4550982,13.4841761 10.3312792,13.230341 L10.1905739,12.9417274 C10.9860004,12.241704 11.243042,11.0012702 10.7458644,9.98191569 C10.1830337,8.82542811 8.86228569,8.38531306 7.80419846,9.00144269 L7.80424648,9.00144322 Z" id="Path"></path>
            </g>
        </g>
    </g>
</svg>