<?xml version="1.0" encoding="UTF-8"?>
<svg width="43px" height="44px" viewBox="0 0 43 44" version="1.1" xmlns="http://www.w3.org/2000/svg" xmlns:xlink="http://www.w3.org/1999/xlink">
    <!-- Generator: Sketch 64 (93537) - https://sketch.com -->
    <title>np_chatbot_933478_000000</title>
    <desc>Created with Sketch.</desc>
    <g id="MAQUETTE" stroke="none" stroke-width="1" fill="none" fill-rule="evenodd">
        <g id="Desktop-HD" transform="translate(-304.000000, -1079.000000)" fill="#fff" fill-rule="nonzero">
            <g id="np_chatbot_933478_000000" transform="translate(304.000000, 1079.000000)">
                <path d="M38.7882946,0 L5.21175167,0 C2.88853592,0 1,1.8913536 1,4.21375141 L1,17.7804873 C1,20.1048061 2.89045601,21.9942387 5.21175167,21.9942387 L29.1858533,21.9942387 L25.3279898,29 L27.6877366,27.5723477 C27.9185172,27.4318877 33.2284398,24.2109812 35.8092436,21.9965045 L38.7882454,21.9965045 C41.1114612,21.9965045 43,20.1051509 43,17.7827531 L43,4.21601722 C43.0019201,1.8916984 41.1114612,0.000344795959 38.7882454,0.000344795959 L38.7882946,0 Z M41.5249707,17.7826053 C41.5249707,19.2910876 40.2979812,20.5186597 38.7902147,20.5186597 L35.2515792,20.5186597 L35.0419542,20.7052978 C33.663031,21.9328699 31.1860107,23.601042 29.3299195,24.7978288 L31.6858261,20.5186647 L5.21166305,20.5186647 C3.70389662,20.5186647 2.47690707,19.2910925 2.47690707,17.7826102 L2.47498402,4.21587437 C2.47498402,2.70739205 3.70197357,1.47981992 5.20974,1.47981992 L38.7882523,1.47981992 C40.2960187,1.47981992 41.5230083,2.70739205 41.5230083,4.21587437 L41.5249707,17.7826053 Z" id="Shape"></path>
                <path d="M30,10.5006419 C30,12.499786 27,12.499786 27,10.5006419 C27,8.49978603 30,8.49978603 30,10.5006419" id="Path"></path>
                <path d="M23,10.5006419 C23,12.499786 20,12.499786 20,10.5006419 C20,8.49978603 23,8.49978603 23,10.5006419" id="Path"></path>
                <path d="M17,10.5006419 C17,12.499786 14,12.499786 14,10.5006419 C14,8.49978603 17,8.49978603 17,10.5006419" id="Path"></path>
                <path d="M13.3542842,25 L10.6458121,25 C9.45143609,25 8.47903442,26.0137088 8.47903442,27.2588213 L8.47903442,28.3882319 L7.28465841,28.3882319 C4.98055518,28.3882319 2.99626833,30.0940938 2.50156891,32.3842876 L1.62132751,32.3842876 C0.727892849,32.3842876 0,33.143101 0,34.0744883 L0,38.9313556 C0,39.8627429 0.727892849,40.6215563 1.62132751,40.6215563 L2.38119237,40.6215563 L2.38119237,44 L21.6188076,44 L21.6188076,40.6215563 L22.3786725,40.6215563 C23.2721072,40.6215563 24,39.8627429 24,38.9313556 L24,34.0744883 C24,33.143101 23.2721072,32.3842876 22.3786725,32.3842876 L21.4984311,32.3842876 C21.0037798,30.0940938 19.0194448,28.3882319 16.7153416,28.3882319 L15.5209656,28.3882319 L15.5209656,27.2588213 C15.5209656,26.0137088 14.5485639,25 13.3541879,25 L13.3542842,25 Z M16.7154379,29.8941128 C18.5003812,29.8941128 20.0126476,31.3470368 20.1593143,33.1999731 L20.2138594,33.8901684 L22.3787592,33.8901684 C22.4746848,33.8901684 22.5555634,33.9744827 22.5555634,34.0744832 L22.5555634,38.9313506 C22.5555634,39.0313511 22.4746848,39.1156654 22.3787592,39.1156654 L20.1743758,39.1156654 L20.1743758,42.4941091 L3.82579749,42.4941091 L3.82579749,39.1156654 L1.62141418,39.1156654 C1.52548853,39.1156654 1.44460994,39.0313511 1.44460994,38.9313506 L1.44460994,34.0744832 C1.44460994,33.9744827 1.52548853,33.8901684 1.62141418,33.8901684 L3.78631399,33.8901684 L3.84085901,33.1999731 C3.98756912,31.3470368 5.49979215,29.8941128 7.28473545,29.8941128 L9.92362991,29.8941128 L9.92362991,27.2588213 C9.92362991,26.8431329 10.2471443,26.5058809 10.6458891,26.5058809 L13.3543612,26.5058809 C13.7531109,26.5058809 14.0766205,26.8431329 14.0766205,27.2588213 L14.0766205,29.8941128 L16.7154379,29.8941128 Z" id="Shape"></path>
                <path d="M8,32 C6.34537946,32 5,33.3456 5,35 C5,36.6544 6.34533088,38 8,38 C9.65466512,38 11,36.6544 11,35 C11.0018939,33.3456 9.65466512,32 8,32 Z M7.999998,36.5882353 C7.14990627,36.5882353 6.45730011,35.8750118 6.45730011,35 C6.45730011,34.1249882 7.14990627,33.4117647 7.999998,33.4117647 C8.85008973,33.4117647 9.54269978,34.1249882 9.54269978,35 C9.54459378,35.8768471 8.85198422,36.5882353 7.999998,36.5882353 Z" id="Shape"></path>
                <path d="M13,35 C13,36.6544 14.3453318,38 16,38 C17.6546682,38 19,36.6544 19,35 C19,33.3456 17.6546682,32 16,32 C14.3453318,32 13,33.3456 13,35 Z M16,33.4117647 C16.8500923,33.4117647 17.5426989,34.1249882 17.5426989,35 C17.5426989,35.8750118 16.8500923,36.5882353 16,36.5882353 C15.1499077,36.5882353 14.4573011,35.8750118 14.4573011,35 C14.4573011,34.1249882 15.1499077,33.4117647 16,33.4117647 Z" id="Shape"></path>
                <polygon id="Path" points="11 39 14 39 14 40 11 40"></polygon>
            </g>
        </g>
    </g>
</svg>