<?xml version="1.0" encoding="UTF-8"?>
<svg width="26px" height="20px" viewBox="0 0 26 20" version="1.1" xmlns="http://www.w3.org/2000/svg" xmlns:xlink="http://www.w3.org/1999/xlink">
    <!-- Generator: Sketch 64 (93537) - https://sketch.com -->
    <title>np_back_1227049_000000</title>
    <desc>Created with Sketch.</desc>
    <g id="MAQUETTE" stroke="none" stroke-width="1" fill="none" fill-rule="evenodd">
        <g id="Desktop-HD" transform="translate(-110.000000, -321.000000)" fill="#168d88" fill-rule="nonzero">
            <g id="Group-2" transform="translate(87.000000, 306.000000)">
                <g id="np_back_1227049_000000" transform="translate(36.000000, 25.000000) rotate(-180.000000) translate(-36.000000, -25.000000) translate(23.000000, 15.000000)">
                    <path d="M24.2676454,8.24163205 L5.93103419,8.24163205 L11.2371847,2.93927606 C11.9244743,2.25247797 11.9244743,1.15360102 11.2371847,0.494714402 C10.9075056,0.165271093 10.4672004,0 10.0000634,0 C9.53292646,0 9.09262126,0.192089185 8.76294219,0.521526999 L0.515467188,8.79112547 C-0.171822396,9.47792356 -0.171822396,10.5768005 0.515467188,11.2356871 L8.76294219,19.5052856 C9.09262126,19.8347289 9.53292646,20 10.0000634,20 C10.4672004,20 10.9075056,19.8347399 11.2371847,19.5052856 C11.5668638,19.1758423 11.7590849,18.735852 11.7590849,18.269049 C11.7590849,17.8022461 11.5668583,17.3622558 11.2640165,17.0328125 L5.93119914,11.7038087 L24.2678103,11.7038087 C25.2300157,11.7038087 26,10.9343751 26,9.97285774 C26,9.01134041 25.2300157,8.24190677 24.2678103,8.24190677 L24.2676454,8.24163205 Z" id="Path"></path>
                </g>
            </g>
        </g>
    </g>
</svg>