<?xml version="1.0" encoding="UTF-8"?>
<svg width="82px" height="88px" viewBox="0 0 82 88" version="1.1" xmlns="http://www.w3.org/2000/svg" xmlns:xlink="http://www.w3.org/1999/xlink">
    <!-- Generator: Sketch 64 (93537) - https://sketch.com -->
    <title>np_hand_3244822_000000</title>
    <desc>Created with Sketch.</desc>
    <g id="MAQUETTE" stroke="none" stroke-width="1" fill="none" fill-rule="evenodd">
        <g id="Desktop-HD" transform="translate(-143.000000, -106.000000)" fill="#000000" fill-rule="nonzero">
            <g id="Group-5" transform="translate(-19.000000, -62.000000)">
                <g id="Group-4" transform="translate(65.000000, 168.000000)">
                    <g id="Group-8" transform="translate(97.000000, 0.000000)">
                        <g id="np_hand_3244822_000000">
                            <path d="M47.25,0.25 C42.168,0.25 37.8672,4.4844 37.8672,9.625 L37.8672,13.3008 C36.7969,12.87111 35.8242,12.75002 34.7422,12.75002 C29.6016,12.75002 25.3594,16.98442 25.3594,22.12502 L25.3594,50.93402 C22.3555,47.91062 19.3477,44.88322 16.3516,41.85982 C12.7188,38.22702 6.7266,38.22702 3.0936,41.85982 C-0.5394,45.49262 -0.5236,51.46922 3.0936,55.10582 C11.1678,63.25422 19.2776,71.37882 27.3356,79.53182 C32.4215,84.61382 39.4836,87.75452 47.2456,87.75452 L53.4956,87.75452 C69.0226,87.75452 81.6206,75.15652 81.6206,59.62952 L81.6206,28.37952 C81.6206,23.23892 77.3862,19.00452 72.2456,19.00452 C71.0308,19.00452 70.0503,19.1764 69.1206,19.54749 L69.1206,15.87949 C69.1206,10.73889 64.8862,6.50449 59.7456,6.50449 C58.2808,6.50449 57.0464,6.86387 56.2925,7.17637 C55.39406,3.82867 52.2261,0.25447 47.2456,0.25447 L47.25,0.25 Z M47.25,6.5 C49.0312,6.5 50.3711,7.8398 50.3711,9.625 L50.367194,44 C50.367194,45.7266 51.765594,47.125 53.492194,47.125 C55.218794,47.125 56.617194,45.7266 56.617194,44 L56.617194,15.875 C56.617194,14.0898 57.956994,12.75 59.742194,12.75 C61.527394,12.75 62.867194,14.0898 62.867194,15.875 L62.867194,44 C62.867194,45.7266 64.269494,47.125 65.992194,47.125 C67.718794,47.125 69.117194,45.7266 69.117194,44 L69.117194,28.375 C69.117194,26.5898 70.456994,25.25 72.242194,25.25 C74.027394,25.25 75.367194,26.5898 75.367194,28.375 L75.367194,59.625 C75.367194,71.797 65.667994,81.5 53.492194,81.5 L47.242194,81.5 C41.156294,81.5 35.719194,79.0664 31.762194,75.1172 C23.691894,66.9766 15.598194,58.8402 7.520194,50.7032 C6.250694,49.4259 6.250694,47.543 7.520194,46.2774 C8.781894,45.0157 10.676394,45.0157 11.938194,46.2774 L26.282194,60.7114 C28.246994,62.688 31.618094,61.30124 31.621994,58.5122 L31.6259,22.1252 C31.6259,20.34 32.9697,19.0002 34.7587,19.0002 C36.5439,19.0002 37.8837,20.34 37.8837,22.1252 L37.8837,44.0002 L37.879794,44.0002 C37.879794,44.82832 38.211824,45.6252 38.797764,46.2111 C39.383704,46.79704 40.176664,47.12516 41.004764,47.12516 C42.731364,47.12516 44.129764,45.72676 44.129764,44.00016 L44.129764,9.62516 C44.129764,7.83996 45.469564,6.5 47.246964,6.5 L47.25,6.5 Z" id="Shape"></path>
                        </g>
                    </g>
                </g>
            </g>
        </g>
    </g>
</svg>