<?xml version="1.0" encoding="UTF-8"?>
<svg width="211px" height="69px" viewBox="0 0 211 69" version="1.1" xmlns="http://www.w3.org/2000/svg" xmlns:xlink="http://www.w3.org/1999/xlink">
    <!-- Generator: Sketch 64 (93537) - https://sketch.com -->
    <title>Group 7</title>
    <desc>Created with Sketch.</desc>
    <g id="MAQUETTE" stroke="none" stroke-width="1" fill="none" fill-rule="evenodd">
        <g id="Desktop-HD" transform="translate(-18.000000, -16.000000)">
            <g id="Group-7" transform="translate(18.000000, 16.000000)">
                <text id="FINDING-MEMO" font-family="CentraNo2-Bold, Centra No2" font-size="18" font-weight="bold" fill="#FFFFFF">
                    <tspan x="79.241332" y="40">FINDING </tspan>
                    <tspan x="158.189332" y="40" font-family="Roboto-Light, Roboto" font-weight="300">MEMO</tspan>
                </text>
                <g id="Group-6">
                    <circle id="Oval" fill="#FFFFFF" opacity="0.146647135" cx="34.5" cy="34.5" r="34.5"></circle>
                    <g id="np_brain_3219434_000000" transform="translate(34.500000, 34.500000) rotate(-180.000000) translate(-34.500000, -34.500000) translate(16.000000, 14.000000)" fill="#000000" fill-rule="nonzero">
                        <path d="M11.8810798,23.0631765 C10.6105138,22.6073888 9.21851682,22.7005393 8.01349411,23.3210161 C7.59478626,23.545584 7.43015069,24.0795407 7.64591166,24.5153985 C7.86006882,24.9512138 8.37466134,25.122576 8.79341011,24.8996603 C9.54936722,24.5153985 10.4171816,24.4438727 11.2210483,24.6983779 C11.9721776,25.1075945 12.5075705,25.8461723 12.6801842,26.7095413 C12.8192243,27.1769972 13.2970766,27.4381287 13.7461831,27.2934247 C14.1952897,27.1487037 14.4477663,26.6513276 14.3087426,26.1838717 C14.0002923,24.8114838 13.1069111,23.6620285 11.8811044,23.0631978 L11.8810798,23.0631765 Z" id="Path"></path>
                        <path d="M36.999409,20.642974 C36.9024514,18.7959528 36.0448544,17.0714135 34.6356399,15.8785456 C35.4848747,13.5148412 35.501565,11.4800171 34.685792,9.82101342 L34.6841204,9.8226909 C34.0639274,8.6064604 33.0425262,7.64352536 31.7937522,7.09660815 C31.7302265,5.97932522 31.2353988,4.92916687 30.4162492,4.16923754 C28.9117291,2.77516769 26.5847214,2.57555472 25.3411257,2.5789045 L25.3427977,2.5789045 C24.883088,1.210001 23.6961536,0.21854983 22.2718751,0.0138692309 C20.8107925,-0.10356229 19.391521,0.530552463 18.4988488,1.69481831 C17.6061766,0.532270302 16.1885742,-0.100195324 14.7291605,0.0138692309 C13.304882,0.218532651 12.1179476,1.210001 11.6582379,2.5789045 C10.4161828,2.57554913 8.08917516,2.77350138 6.58311438,4.16923754 C5.76563391,4.92916687 5.27250086,5.97932522 5.20732324,7.09660815 C3.95854928,7.64348241 2.93714804,8.60641745 2.31528599,9.8226909 C1.49951734,11.4801485 1.5162076,13.5167334 2.36543809,15.8802231 L2.36543809,15.8785456 C0.954511807,17.0712847 0.0986009327,18.7958669 0,20.642974 C0.0351056125,22.3423469 0.972913891,23.9142561 2.7917245,25.3232282 L2.79339609,25.3232282 C1.97929646,26.7575385 1.70510542,28.4368126 2.01772686,30.0571649 C2.50418381,31.8051957 3.71114653,33.2613225 5.33605053,34.0581853 C5.43133908,35.2190585 5.94956744,36.3028006 6.79375234,37.1029703 C7.95894661,38.1665707 9.67243738,38.5775639 11.8992607,38.3292931 C12.5211227,39.6344648 13.686317,40.5973568 15.0838483,40.9580602 C15.2510205,40.9849015 15.4181885,41 15.5870383,41 C16.6970691,40.936251 17.7401677,40.4480581 18.5008157,39.6327714 C19.2614209,40.4480581 20.3045623,40.9362681 21.4145931,41 C21.5834343,41 21.7506066,40.9849015 21.9177831,40.9580602 C23.3136453,40.5973826 24.4805086,39.6344648 25.1023707,38.3292931 C27.3290656,38.5792517 29.0425564,38.1648916 30.2095909,37.1012954 L30.2079193,37.1012954 C31.0521469,36.3027576 31.5703582,35.2190585 31.6656211,34.0581853 C33.2905251,33.2613225 34.4974878,31.8051957 34.9839447,30.0571649 C35.2965533,28.4366409 35.022394,26.7573667 34.2099445,25.3232282 C36.0270861,23.9140843 36.9649077,22.3421751 37,20.642974 L36.999409,20.642974 Z M15.3692573,39.1919106 C14.2993687,39.0223426 13.4685361,37.5594862 13.2378253,37.0126119 C13.0790153,36.6301263 12.6794718,36.4053127 12.2715875,36.4724372 C10.3023078,36.7911781 8.86300803,36.5613483 8.00538533,35.7896819 C7.60083478,35.4139044 7.31830288,34.9240624 7.19629278,34.3838878 C8.1257692,34.2345817 9.00842729,33.8705543 9.77070151,33.3169375 C10.5296377,33.6860068 11.3621822,33.8688794 12.2046981,33.8504126 C12.2749084,33.8504126 12.3467921,33.8487352 12.4203491,33.8470577 L12.4203491,33.8487352 C12.9118131,33.8353145 13.3013381,33.4243085 13.2879431,32.9311082 C13.2678827,32.4395913 12.86333,32.0537215 12.3735308,32.0587892 C11.4875346,32.1778956 10.5948624,31.8843211 9.94954837,31.2636012 C9.47644363,30.5338629 9.30761521,29.6497767 9.47644363,28.7975564 C9.57674783,28.314414 9.26915058,27.8413209 8.78769215,27.7390236 C8.30791131,27.6366919 7.83480658,27.943687 7.73115577,28.4268466 C7.4854152,29.6883851 7.70775217,30.9969066 8.35468684,32.1057721 C7.7846502,32.4647748 7.12264593,32.6459468 6.45062751,32.62748 C5.16342315,32.0755381 4.17878328,30.990164 3.75416589,29.6497767 C3.54353051,28.2305405 3.88288633,26.784463 4.70033257,25.6084729 C4.84409992,25.4121969 4.90093668,25.1656138 4.85914255,24.9257175 C4.81734971,24.6858255 4.68027002,24.4727662 4.47966591,24.336885 C2.72102583,23.1491707 1.81328955,21.8960066 1.78320429,20.6126515 C1.74141144,18.7723299 3.479962,17.2541461 3.87115607,16.9370759 C5.00960312,16.4740751 6.28341248,16.4824496 7.41514064,16.9605617 C8.44488701,17.6701584 9.08853199,18.8209821 9.15537862,20.0741462 C9.22391997,20.5086308 9.59668627,20.8273759 10.0346987,20.8273759 C10.0831775,20.8273759 10.1299872,20.824021 10.1767927,20.8173107 C10.6632497,20.7384661 10.9942732,20.2804858 10.9157006,19.7923187 C10.8254276,19.2135355 10.678318,18.6465196 10.4726811,18.0979704 C10.4977567,18.0979704 10.5211599,18.1013254 10.5462381,18.1013254 C10.9992717,18.1030029 11.4472982,18.0342223 11.8785917,17.896662 C13.1674651,17.4336612 14.2039304,16.4455598 14.7305296,15.1773217 C14.9461806,14.7327448 14.76062,14.1976378 14.317621,13.98119 C13.8729325,13.76646 13.3396573,13.9526713 13.1256796,14.3972293 C12.8030397,15.2158658 12.1577727,15.8634484 11.3436303,16.1888931 C10.5947083,16.3902025 9.79896797,16.3214202 9.09686428,15.9909379 C8.84443904,15.7594332 8.56692706,15.5564533 8.26770062,15.3887062 C6.92700183,14.7361419 5.38901558,14.611985 3.96161301,15.03977 C3.36316013,13.6356508 3.34308902,12.0520173 3.90477625,10.6343701 C4.41297333,9.66306064 5.27722934,8.92825472 6.31369461,8.58271126 C6.33041183,8.57767842 6.34378544,8.56593527 6.36050437,8.56090243 C6.37387798,8.55754749 6.38725159,8.55922496 6.3989536,8.55419255 L6.4006252,8.55419255 C7.17128735,8.30087991 8.02052212,8.46528146 8.64238416,8.98867715 C7.93022352,9.95998666 7.60424986,11.1611431 7.72463373,12.3589498 C7.75305254,12.8320428 8.14255789,13.2010777 8.61396792,13.2010777 C8.63068515,13.2010777 8.64907353,13.2010777 8.66578905,13.1994003 L8.66578905,13.2010777 C8.90317165,13.1876571 9.12382975,13.0802921 9.28097499,12.90247 C9.43811594,12.7246478 9.51835759,12.4914639 9.50498398,12.2549303 C9.38796385,11.4077347 9.63370442,10.5488149 10.1820095,9.89290072 C10.7804624,9.35440093 11.5578006,9.05579744 12.3619289,9.05412255 C12.4304702,9.05244508 12.3886761,9.05412255 12.3970345,9.05412255 L12.3987061,9.05412255 C12.885163,9.05412255 13.2813642,8.66157041 13.2897093,8.17338614 C13.2980681,7.68354415 12.913575,7.27925058 12.4254533,7.26413359 C11.5946206,7.26581149 10.7738021,7.45705558 10.0265491,7.82444995 C9.25087988,7.05107853 8.19605531,6.62831818 7.10275756,6.65180964 C7.21810439,6.20555783 7.45715602,5.80126426 7.78984001,5.48591184 C8.85138348,4.49781046 10.6818773,4.36192934 11.658172,4.36695402 L11.6598436,4.36695402 C11.853763,4.90377892 12.216528,5.36175498 12.6929708,5.67380056 C13.102537,5.9438922 13.6525325,5.83149395 13.9233427,5.42216281 C14.1958305,5.01283597 14.0871683,4.45922778 13.6809445,4.18411575 C13.4586088,4.04823034 13.3148414,3.8116924 13.2964522,3.54997523 C13.2964522,3.53319924 13.291437,3.51642367 13.291437,3.49964682 C13.2897654,3.40738165 13.2981242,3.31343729 13.3198562,3.22284702 C13.5371763,2.45450027 14.1908311,1.88915923 14.9815216,1.78346915 C16.2068864,1.61235513 17.266718,2.95610946 17.6094247,3.45600081 L17.6094247,35.1170746 C17.6127684,35.2026316 17.6311572,35.2881886 17.6595768,35.3687124 C17.631158,35.4492361 17.6127671,35.5347931 17.6094247,35.6203501 L17.6094247,38.0058711 C17.0844946,38.7255601 16.257,39.1633945 15.3693348,39.1919106 L15.3692573,39.1919106 Z M32.5225672,24.3367588 C32.3219631,24.4726442 32.1848846,24.685695 32.1430905,24.9239164 C32.1012981,25.1638084 32.1581357,25.4087337 32.2985582,25.6066718 C33.1177077,26.7826619 33.4570335,28.2304142 33.2463939,29.6496504 C32.8217808,30.9900378 31.8371366,32.0770867 30.5482632,32.6273537 C29.8762448,32.6474847 29.2142405,32.4646271 28.6458729,32.1056458 C29.2928132,30.9967803 29.515136,29.6882589 29.267735,28.4267203 C29.1657617,27.9435779 28.6909794,27.6348821 28.2095296,27.7388973 C27.7297487,27.841229 27.4221771,28.3176805 27.5257852,28.8008229 C27.6912841,29.6496934 27.5241136,30.5287119 27.0560185,31.2568183 C26.4140853,31.8858912 25.5163632,32.1828198 24.627029,32.0587058 L24.6019534,32.0587058 C24.1138274,32.0587058 23.7176263,32.4529372 23.7109502,32.942792 C23.7042634,33.4309591 24.0920958,33.8352527 24.5802132,33.8486948 C24.6537702,33.8503723 24.7256496,33.8520502 24.7975333,33.8520502 L24.7958617,33.8503723 C25.6384204,33.8688257 26.4709221,33.6859707 27.2281892,33.3168972 C27.9921753,33.8705139 28.8748334,34.2361991 29.805936,34.3838474 C29.6839002,34.9173225 29.4064011,35.4021398 29.0085266,35.7779172 C28.1509467,36.5596631 26.7132732,36.7928599 24.7289723,36.4724398 C24.3210794,36.4086908 23.9232178,36.6301332 23.7644035,37.0109396 C23.5337099,37.5611637 22.701191,39.024033 21.6313024,39.1934549 L21.6313024,39.191777 C20.7419682,39.1666137 19.9144736,38.7287763 19.3912125,38.0057376 L19.3912125,35.6202165 C19.3878689,35.5346595 19.3711521,35.4491025 19.3410604,35.3685788 C19.3711512,35.2880551 19.3878702,35.2024981 19.3912125,35.1169411 L19.3912125,3.45586725 C19.735584,2.95425806 20.7920818,1.60549623 22.0174466,1.78333558 L22.0191182,1.78501348 C22.8098515,1.88902438 23.4617988,2.45436972 23.6807836,3.22271646 C23.702516,3.31330674 23.7108744,3.4072511 23.7092024,3.49951627 C23.7092024,3.51629226 23.7041876,3.53139035 23.7041876,3.54984467 C23.6857988,3.81154896 23.542031,4.04810408 23.3180263,4.18398519 C22.9134757,4.460785 22.8048221,5.01271401 23.0773014,5.42203226 C23.3481159,5.8296842 23.8981199,5.94374017 24.3076733,5.67367 C24.784116,5.3616416 25.1468511,4.90364836 25.3408005,4.36682346 C26.3187642,4.36179062 28.147589,4.49767561 29.2108015,5.48578129 C29.5451417,5.80284296 29.7825072,6.20547022 29.8978839,6.65167908 C28.8045862,6.62819278 27.7497616,7.05261857 26.9724234,7.8243194 C26.2268394,7.45860851 25.4060209,7.26735283 24.5735192,7.26400304 C24.0887313,7.2824565 23.7059251,7.6867548 23.7142702,8.17493048 C23.7226154,8.66310616 24.1204941,9.05399199 24.6069425,9.05399199 L24.6270029,9.05399199 C25.4360955,9.05231452 26.2167718,9.35092488 26.8186055,9.89277017 C27.366902,10.5486843 27.6126768,11.4076041 27.495631,12.2547997 C27.4822574,12.4913377 27.562499,12.724543 27.71964,12.9023394 C27.8767809,13.0801616 28.0974433,13.1875266 28.3331569,13.2009472 C28.3498737,13.2026247 28.3682625,13.2026247 28.384978,13.2026247 L28.3866496,13.2026247 C28.8580853,13.2009472 29.2475676,12.8318805 29.2743148,12.3588218 C29.3963506,11.1610151 29.0703683,9.95990162 28.3582334,8.98854917 C28.9800954,8.46512342 29.8276612,8.30072616 30.5999923,8.55406457 C30.613366,8.55909698 30.6267396,8.55574204 30.6401132,8.56077445 C30.6551584,8.56580729 30.6668604,8.57587297 30.6819056,8.58090581 C31.7200399,8.92648792 32.5859649,9.66293009 33.095831,10.6342396 C33.6575225,12.0518009 33.6374514,13.6354344 33.0389943,15.0396395 C31.6113777,14.6118587 30.0733915,14.7359984 28.7329067,15.3885757 C28.4336716,15.5563313 28.1544821,15.7593198 27.902074,15.9924822 C27.2049774,16.3212853 26.4142441,16.3917468 25.670372,16.1937915 C24.8495534,15.8700174 24.1992751,15.2208071 23.8749705,14.397103 C23.6609928,13.9525261 23.1277175,13.7663123 22.6847408,13.9810637 C22.2417214,14.1974729 22.0561599,14.7326186 22.270159,15.1771955 C22.7984272,16.4454336 23.8331807,17.433535 25.1237659,17.8965357 C25.5533903,18.034096 26.0030859,18.1028783 26.4544505,18.1011991 C26.4795261,18.1011991 26.5029293,18.0978442 26.5280075,18.0978442 C26.3223877,18.6463933 26.1752781,19.2134522 26.084988,19.7921924 C26.0465388,20.0253763 26.1033764,20.2652855 26.242129,20.4581989 C26.3808807,20.6494417 26.5898428,20.7786146 26.8238916,20.8172016 C26.8707014,20.8239119 26.9175068,20.8272668 26.9659856,20.8272668 C27.4022862,20.8272668 27.7750782,20.508526 27.8453057,20.0740371 C27.9121737,18.820873 28.5557973,17.6700493 29.5855437,16.9604526 C30.7172718,16.48066 31.992793,16.4739605 33.1295282,16.9369668 C33.5273941,17.2607409 35.2592913,18.7755706 35.215811,20.6125425 C35.1873922,21.8975724 34.2813275,23.1490186 32.5226874,24.336776 L32.5225672,24.3367588 Z" id="Shape"></path>
                        <path d="M28.2307672,23.3210194 C27.025586,22.7005534 25.6333649,22.607377 24.3610769,23.0631789 C23.1383005,23.663715 22.2447977,24.813174 21.9363109,26.183863 C21.7972525,26.6513205 22.0481993,27.1486727 22.4973485,27.2934197 C22.94811,27.4381412 23.4244047,27.1769748 23.5634877,26.7095344 C23.7361159,25.8495268 24.2683958,25.1125904 25.0148364,24.7017286 C25.8220415,24.4438882 26.6947575,24.5154185 27.4539649,24.9013467 C27.8727278,25.1242545 28.3858086,24.9512522 28.6000184,24.5154185 C28.8142038,24.0796018 28.649567,23.5439655 28.2307918,23.3210321 L28.2307672,23.3210194 Z" id="Path"></path>
                    </g>
                </g>
            </g>
        </g>
    </g>
</svg>