<?xml version="1.0" encoding="UTF-8"?>
<svg width="32px" height="32px" viewBox="0 0 32 32" version="1.1" xmlns="http://www.w3.org/2000/svg" xmlns:xlink="http://www.w3.org/1999/xlink">
    <!-- Generator: Sketch 64 (93537) - https://sketch.com -->
    <title>np_call_1929650_000000</title>
    <desc>Created with Sketch.</desc>
    <g id="MAQUETTE" stroke="none" stroke-width="1" fill="none" fill-rule="evenodd">
        <g id="Desktop-HD" transform="translate(-284.000000, -450.000000)" fill-rule="nonzero">
            <g id="Group-2" transform="translate(18.000000, 102.000000)">
                <g id="np_call_1929650_000000" transform="translate(266.000000, 348.000000)">
                    <path d="M25.9402957,21.5159474 C25.1297299,20.7786341 24.0828912,20.3719077 22.9920547,20.3719077 C21.751499,20.3719077 20.5617289,20.9044944 19.7305886,21.8299607 L18.7730117,22.8951341 C18.3649679,23.3502711 18.0600078,23.8731544 17.8662908,24.4513894 L17.7811122,24.7086912 L17.5297021,24.6090901 C13.263918,22.9130924 9.78805485,19.6996883 7.74115374,15.5633677 L7.60514384,15.2894639 L7.89639817,15.2009297 C8.66162969,14.9699119 9.34853735,14.530017 9.88709743,13.9310296 L10.8433027,12.8672374 C11.6318872,11.9901816 12.0330376,10.8558452 11.9739518,9.67447947 C11.9162517,8.49311372 11.4038089,7.40580676 10.5327857,6.61314182 L8.91854743,5.14403971 C8.10798163,4.40534526 7.06114294,4 5.97030643,4 C4.72975071,4 3.53998065,4.52982443 2.70746869,5.45667189 L1.75126341,6.52322642 C1.62899096,6.65879362 1.51084397,6.80819696 1.39956218,6.97004113 L1.35559953,7.01845874 C0.452993516,7.79589579 -0.314981271,9.68695218 0.130131795,12.004 C2.18540339,22.7803902 11.2006311,30.9903492 22.055186,31.9698923 C23.4798573,32.0999279 24.8193465,31.8038905 25.8359741,31.1758462 C26.242611,30.9392933 26.6012056,30.6474029 26.9103158,30.3043504 L27.8665211,29.239177 C29.4917676,27.428368 29.3530215,24.6230006 27.5546606,22.9865334 L25.9402957,21.5159474 Z" id="Path" fill="#FFFFFF"></path>
                    <path d="M17.0182641,0 C16.4558969,0 16,0.455896902 16,1.01826409 C16,1.58063128 16.4558969,2.03652818 17.0182641,2.03652818 C24.1556521,2.03652818 29.9634718,7.84434792 29.9634718,14.9817359 C29.9634718,15.5441031 30.4193687,16 30.9817359,16 C31.5441031,16 32,15.5441031 32,14.9817359 C32,6.72094136 25.2791285,0 17.018334,0 L17.0182641,0 Z" id="Path" fill="#FFFFFF"></path>
                    <path d="M24.8144318,15.9070793 C24.8144318,16.5106779 25.3036928,17 25.9072159,17 C26.510739,17 27,16.5106779 27,15.9070793 C27,9.89322136 22.1073903,5 16.0927841,5 C15.489261,5 15,5.48932214 15,6.09145802 C15,6.69505659 15.489261,7.18437872 16.0927841,7.18437872 C20.9032691,7.18584365 24.8145068,11.0976056 24.8145068,15.9071918 L24.8144318,15.9070793 Z" id="Path" fill="#FFFFFF"></path>
                </g>
            </g>
        </g>
    </g>
</svg>