<?xml version="1.0" encoding="UTF-8"?>
<svg width="69px" height="69px" viewBox="0 0 69 69" version="1.1" xmlns="http://www.w3.org/2000/svg" xmlns:xlink="http://www.w3.org/1999/xlink">
    <!-- Generator: Sketch 64 (93537) - https://sketch.com -->
    <title>Group 13</title>
    <desc>Created with Sketch.</desc>
    <g id="MAQUETTE" stroke="none" stroke-width="1" fill="none" fill-rule="evenodd">
        <g id="Desktop-HD" transform="translate(-52.000000, -451.000000)">
            <g id="Group-5" transform="translate(18.000000, 423.000000)">
                <g id="Group-4" transform="translate(34.000000, 28.000000)">
                    <g id="Group-13">
                        <g id="Group-2" fill="#FFFFFF">
                            <circle id="Oval" cx="34.5" cy="34.5" r="34.5"></circle>
                        </g>
                        <g id="np_stats_3194853_000000" transform="translate(15.000000, 18.000000)" fill="#000000" fill-rule="nonzero">
                            <path d="M9.75153255,24.7298586 C10.0199146,24.9087853 10.3754196,25 10.6891477,25 C11.224163,25 11.7591783,24.7298586 12.0729064,24.2369435 L17.8272653,15.4343108 L23.7159134,19.2970149 C24.4740004,19.7917083 25.5004874,19.5671563 26.0355026,18.8023215 L32.7276552,8.60892495 C33.2191268,7.84586845 33.0396076,6.81265259 32.2361835,6.27413014 C31.4780964,5.77943673 30.4062813,5.96013275 29.9165942,6.76882355 L24.1622353,15.6132196 L18.2735872,11.7505155 C17.5155002,11.2558221 16.4890132,11.4803741 15.953998,12.2452089 L9.26006087,22.3950458 C8.77032915,23.2037276 8.99341875,24.2369435 9.75153255,24.7298406 L9.75153255,24.7298586 Z" id="Path"></path>
                            <path d="M41.6289701,28.4101613 L36.8109219,24.4631245 C36.1926838,23.9690722 35.308476,24.4175763 35.308476,25.1814199 L35.308476,27.5587552 L6.34890232,27.5587552 L6.34890232,6.74989567 L8.69240666,6.74989567 C9.4436296,6.74989567 9.88573349,5.85292341 9.40048026,5.2257604 L5.50961228,0.336364598 C5.15558432,-0.112121533 4.44927029,-0.112121533 4.09523349,0.336364598 L0.204365516,5.22396646 C-0.282656137,5.85112946 0.159465445,6.74810173 0.912439118,6.74810173 L3.25594346,6.74810173 L3.2542166,29.1284566 C3.2542166,30.0254289 3.9622902,30.6981581 4.80158024,30.6981581 L35.3518437,30.6981581 L35.3518437,33.0754934 C35.3518437,33.837561 36.2360515,34.2860472 36.8542896,33.7937888 L41.6723379,29.846752 C42.116166,29.4876133 42.116166,28.8148751 41.6291638,28.4102061 L41.6289701,28.4101613 Z" id="Path"></path>
                        </g>
                    </g>
                </g>
            </g>
        </g>
    </g>
</svg>